# xmcd
#
# Track frame offsets: 
#        150
#        19273
#        39367
#        57039
#        74368
#        97067
#        116251
#        140158
#        158675
#        182382
#        209848
#        226930
#        244449
#        264997
#        283526
#        299068
#        324796
#
# Disc length: 4587 seconds
#
# Revision: 2
# Processed by: cddbd v1.5.2PL0 Copyright (c) Steve Scherf et al.
# Submitted via: ExactAudioCopyFreeDBPlugin 1.0
#
DISCID=fa11e911
DTITLE=Michael Bolton - The Very Best of Michael Bolton
DYEAR=2005
DGENRE=Pop
TTITLE0=How Am I Supposed To Live Without You
TTITLE1=Soul Provider
TTITLE2=How Can We Be lovers
TTITLE3=When A Man Loves A Woman
TTITLE4=Said I Loved You... But I Lied
TTITLE5=The Best Of Love
TTITLE6=Lean On Me
TTITLE7=To Love Somebody
TTITLE8=Can I Touch You... There?
TTITLE9=Drift Away
TTITLE10=When I'm On My Feet Again
TTITLE11=(Sittin' On) The Dock Of The Bay
TTITLE12=Missing You Now
TTITLE13=A Love So Beautiful
TTITLE14=Steel Bars
TTITLE15=Soul Of My Soul
TTITLE16=Time, Love And Tenderness
EXTD=
EXTT0=
EXTT1=
EXTT2=
EXTT3=
EXTT4=
EXTT5=
EXTT6=
EXTT7=
EXTT8=
EXTT9=
EXTT10=
EXTT11=
EXTT12=
EXTT13=
EXTT14=
EXTT15=
EXTT16=
PLAYORDER=
